<svg width="390" height="308" viewBox="0 0 390 308" fill="none" xmlns="http://www.w3.org/2000/svg">
<path d="M59.701 299.931C59.701 299.931 14.4152 263.303 19.7307 224.858C25.0463 186.413 68.5798 218.449 79.238 183.666C89.8961 148.883 50.6105 103.433 86.2428 71.7129C121.875 39.9923 154.737 70.1794 176.945 63.7703C199.153 57.3613 197.374 7.91548 248.003 6.9999C298.631 6.08432 340.601 37.2185 321.835 126.458C303.068 215.698 360.828 225.774 368.796 257.81C376.765 289.846 357.084 301.023 357.084 301.023L59.701 299.931Z" fill="#AC5BE8"/>
<path opacity="0.7" d="M59.701 299.931C59.701 299.931 14.4152 263.303 19.7307 224.858C25.0463 186.413 68.5798 218.449 79.238 183.666C89.8961 148.883 50.6105 103.433 86.2428 71.7129C121.875 39.9923 154.737 70.1794 176.945 63.7703C199.153 57.3613 197.374 7.91548 248.003 6.9999C298.631 6.08432 340.601 37.2185 321.835 126.458C303.068 215.698 360.828 225.774 368.796 257.81C376.765 289.846 357.084 301.023 357.084 301.023L59.701 299.931Z" fill="white"/>
<path d="M247.002 178.592H239.583V300.103H247.002V178.592Z" fill="#BCBEC0"/>
<path d="M148.381 176.409H74.0259V299.516H148.381V176.409Z" fill="#BCBEC0"/>
<path d="M144.435 264.165H77.9722V292.029H144.435V264.165Z" fill="#D1D3D4"/>
<path d="M144.435 225.07H77.9722V252.934H144.435V225.07Z" fill="#D1D3D4"/>
<path d="M142.223 259.583H80.1839C80.0461 259.57 79.918 259.506 79.8247 259.404C79.7314 259.302 79.6797 259.169 79.6797 259.03C79.6797 258.892 79.7314 258.758 79.8247 258.656C79.918 258.554 80.0461 258.49 80.1839 258.478H142.223C142.299 258.471 142.377 258.48 142.45 258.504C142.523 258.529 142.59 258.568 142.646 258.62C142.703 258.672 142.749 258.736 142.78 258.806C142.811 258.877 142.827 258.953 142.827 259.03C142.827 259.107 142.811 259.183 142.78 259.254C142.749 259.324 142.703 259.388 142.646 259.44C142.59 259.492 142.523 259.531 142.45 259.556C142.377 259.58 142.299 259.589 142.223 259.583Z" fill="#D1D3D4"/>
<path d="M110.501 238.547C112.078 238.547 113.357 237.267 113.357 235.687C113.357 234.108 112.078 232.828 110.501 232.828C108.923 232.828 107.645 234.108 107.645 235.687C107.645 237.267 108.923 238.547 110.501 238.547Z" fill="#BCBEC0"/>
<path d="M110.284 280.754C111.862 280.754 113.14 279.473 113.14 277.894C113.14 276.315 111.862 275.035 110.284 275.035C108.707 275.035 107.428 276.315 107.428 277.894C107.428 279.473 108.707 280.754 110.284 280.754Z" fill="#BCBEC0"/>
<path d="M144.191 177.014H77.6792V222.053H144.191V177.014Z" fill="#A7A9AC"/>
<path d="M86.9409 195.708H140.051V209.343H86.9409C86.3401 209.345 85.745 209.228 85.1897 208.998C84.6344 208.769 84.1299 208.431 83.7054 208.006C83.2808 207.58 82.9445 207.075 82.7159 206.519C82.4872 205.963 82.3707 205.367 82.3731 204.765V200.255C82.3749 199.656 82.4944 199.063 82.7249 198.511C82.9554 197.958 83.2924 197.457 83.7165 197.034C84.1407 196.612 84.6438 196.278 85.197 196.05C85.7502 195.823 86.3428 195.707 86.9409 195.708Z" fill="#AC5BE8"/>
<path d="M90.0312 198H140.033V207.106H90.0312C89.2247 207.106 88.4513 206.785 87.8811 206.214C87.3108 205.643 86.9905 204.869 86.9905 204.061V201.044C86.9905 200.237 87.3108 199.462 87.8811 198.891C88.4513 198.32 89.2247 198 90.0312 198Z" fill="white"/>
<path d="M140.051 200.557H106.275V200.972H140.051V200.557Z" fill="#AC5BE8"/>
<path d="M140.052 203.881H122.443V204.296H140.052V203.881Z" fill="#AC5BE8"/>
<path d="M93.4142 209.343H135.141V222.012H93.4277C92.3058 222.012 91.2299 221.566 90.4367 220.772C89.6434 219.978 89.1978 218.9 89.1978 217.777V213.583C89.1978 212.459 89.6434 211.382 90.4367 210.588C91.2299 209.794 92.3058 209.347 93.4277 209.347L93.4142 209.343Z" fill="#2F2E41"/>
<path d="M97.1711 211.747H134.979V219.983H97.1711C96.4411 219.983 95.741 219.692 95.2248 219.175C94.7087 218.659 94.4187 217.958 94.4187 217.227V214.498C94.4199 213.768 94.7104 213.068 95.2264 212.552C95.7425 212.037 96.4419 211.747 97.1711 211.747Z" fill="white"/>
<path d="M173.058 141.482H129.078V162.987H173.058V141.482Z" fill="#2F2E41"/>
<path d="M150.597 22.9165H147.349C145.38 22.9165 143.492 23.6996 142.1 25.0936C140.707 26.4875 139.925 28.3781 139.925 30.3494V42.6624H158.016V30.3494C158.016 28.3789 157.235 26.489 155.843 25.0952C154.452 23.7014 152.565 22.9177 150.597 22.9165ZM155.246 41.6837H142.534V30.7508C142.534 30.0646 142.669 29.3851 142.931 28.7511C143.193 28.1171 143.578 27.5412 144.063 27.0561C144.548 26.5711 145.123 26.1865 145.757 25.9242C146.39 25.662 147.069 25.5274 147.754 25.528H150.034C151.417 25.528 152.744 26.0782 153.722 27.0577C154.701 28.0372 155.25 29.3656 155.25 30.7508L155.246 41.6837Z" fill="#AC5BE8"/>
<path d="M155.322 30.7508C155.316 30.0584 155.173 29.3741 154.903 28.7369C154.632 28.0997 154.239 27.5221 153.745 27.0371C153.252 26.5521 152.667 26.1692 152.026 25.9103C151.385 25.6513 150.698 25.5214 150.007 25.528H147.682C146.989 25.519 146.301 25.6472 145.658 25.905C145.014 26.1629 144.428 26.5454 143.933 27.0307C143.437 27.5159 143.042 28.0943 142.77 28.7327C142.499 29.3711 142.355 30.0569 142.349 30.7508V41.6837H143.101V31.5717C143.104 30.9647 143.227 30.3643 143.463 29.8051C143.699 29.246 144.043 28.7392 144.476 28.314C144.908 27.8888 145.421 27.5536 145.984 27.3278C146.546 27.1019 147.148 26.99 147.755 26.9983H149.782C150.386 26.9924 150.986 27.1061 151.546 27.3331C152.107 27.56 152.617 27.8957 153.047 28.3207C153.477 28.7457 153.82 29.2518 154.054 29.8097C154.288 30.3676 154.41 30.9665 154.412 31.5717V41.6837H155.313L155.322 30.7508Z" fill="#2F2E41"/>
<path d="M154.412 41.6837H143.119V41.7197H154.412V41.6837Z" fill="#2F2E41"/>
<path d="M216.807 283.117L217.348 271.517L231.353 271.787L231.623 283.117C231.623 283.117 236.205 295.25 226.506 295.52L200.108 295.791C200.108 295.791 194.703 292.016 202.262 288.777L216.807 283.117Z" fill="#F9B499"/>
<path d="M184.216 287.429L184.756 275.833L198.762 276.104L199.032 287.429C199.032 287.429 203.609 299.566 193.914 299.836L167.517 300.107C167.517 300.107 162.111 296.328 169.67 293.094L184.216 287.429Z" fill="#F9B499"/>
<path d="M199.302 286.351L184.216 281.227L184.756 275.833L198.762 276.104L199.302 286.351Z" fill="#F7A48B"/>
<path d="M216.807 277.181L231.623 281.768L231.353 271.787L217.348 271.517L216.807 277.181Z" fill="#F7A48B"/>
<path d="M256.705 249.218H254.764V292.967H256.705V249.218Z" fill="#AC5BE8"/>
<path d="M264.963 251.487H247.809L242.304 228.805H269.17L264.963 251.487Z" fill="#2F2E41"/>
<path d="M215.46 275.296L204.419 222.973H232.43L233.511 275.562L215.46 275.296Z" fill="#2F2E41"/>
<path opacity="0.2" d="M233.241 242.737L204.433 225.562H232.272L233.241 242.737Z" fill="black"/>
<path d="M183.139 278.53L200.108 277.177L199.302 225.666L249.268 226.342L249.669 205.978L230.006 188.718L182.599 203.015C182.599 203.015 165.359 207.331 172.364 232.142L183.139 278.53Z" fill="#2F2E41"/>
<path d="M273.621 171.416H63.0164V177.239H273.621V171.416Z" fill="#D1D3D4"/>
<path d="M260.129 83.1328L261.017 94.4625L243.047 98.6796L240.831 91.1295L249.705 74.2476L260.129 83.1328Z" fill="#F9B499"/>
<path d="M242.854 98.0121L240.831 91.1295L246.962 85.9878L242.854 98.0121Z" fill="#F7A48B"/>
<path d="M217.168 54.7318H83.7651V140.877H217.168V54.7318Z" fill="white"/>
<path d="M85.1164 141.234V55.5211H218.406V49.9374H81.4946V141.793L85.1164 141.234Z" fill="#2F2E41"/>
<path d="M79.418 48.5212V144.238H221.078V48.5212H79.418ZM217.168 139.452H83.7875V53.3066H217.168V139.452Z" fill="#AC5BE8"/>
<path opacity="0.2" d="M79.418 48.5212V144.238H221.078V48.5212H79.418ZM217.168 139.452H83.7875V53.3066H217.168V139.452Z" fill="white"/>
<path d="M162.12 38.9008H136.137V60.5771H162.12V38.9008Z" fill="#AC5BE8"/>
<path d="M162.102 60.5771H136.137V64.3341H162.102V60.5771Z" fill="#2F2E41"/>
<path d="M150.98 47.7454C150.978 47.4001 150.878 47.0625 150.694 46.7709C150.509 46.4792 150.246 46.2453 149.935 46.0958C149.625 45.9463 149.278 45.8871 148.935 45.9251C148.592 45.963 148.267 46.0965 147.996 46.3104C147.726 46.5242 147.52 46.8099 147.404 47.1349C147.287 47.4598 147.264 47.811 147.337 48.1485C147.41 48.486 147.576 48.7963 147.816 49.0439C148.056 49.2916 148.361 49.4668 148.696 49.5495V53.9335H149.597V49.5495C149.997 49.4482 150.35 49.2151 150.601 48.8877C150.852 48.5604 150.986 48.158 150.98 47.7454Z" fill="white"/>
<path d="M179.535 85.6913H118.168V99.3438H179.535V85.6913Z" fill="#AC5BE8"/>
<path d="M158.737 109.244H139.304V113.339H158.737V109.244Z" fill="#2F2E41"/>
<path d="M192.491 171.52L115.348 171.57L119.65 163.059L120.893 160.596L185.211 160.939L186.671 163.059L192.491 171.52Z" fill="#AC5BE8"/>
<path opacity="0.2" d="M186.671 163.059H119.65L120.893 160.596L185.211 160.939L186.671 163.059Z" fill="white"/>
<path d="M212.14 145.893L230.452 159.32L229.475 186.499C229.475 186.499 228.817 194.685 235.358 198.942C235.358 198.942 247.462 207.782 252.692 210.403L286.049 129.521C286.049 129.521 283.432 109.874 272.639 96.7763C272.639 96.7763 266.098 89.8982 247.128 96.1223C247.128 96.1223 234.7 99.0675 226.857 117.077L212.14 145.893Z" fill="#AC5BE8"/>
<path d="M163.85 131.681L181.891 150.038L193.73 144.544L175.544 126.192L163.85 131.681Z" fill="#E6E7E8"/>
<path d="M161.106 133.706L163.85 131.681L181.891 150.038L179.152 151.77L161.106 133.706Z" fill="#AC5BE8"/>
<path opacity="0.2" d="M233.714 105.67C234.945 106.021 236.11 106.574 237.16 107.308C237.416 107.497 237.691 107.664 237.935 107.871L238.673 108.485C238.917 108.697 239.124 108.936 239.363 109.157L239.705 109.5C239.813 109.617 239.912 109.743 240.016 109.865C241.666 111.849 242.869 114.166 243.543 116.657C244.939 121.619 244.795 126.927 243.615 131.916C243.322 133.169 242.939 134.396 242.57 135.609L241.453 139.267L239.2 146.587C237.687 151.458 236.191 156.33 234.633 161.187L234.606 161.277L234.524 161.237L230.43 159.32L234.588 161.092L234.479 161.142C235.867 156.235 237.317 151.346 238.745 146.448L240.935 139.118L242.025 135.452C242.385 134.225 242.773 133.021 243.07 131.789C243.674 129.329 243.997 126.808 244.034 124.275C244.034 123.644 244.034 123.008 243.998 122.376L243.822 120.487C243.767 119.858 243.674 119.233 243.543 118.615L243.376 117.681C243.318 117.37 243.214 117.072 243.133 116.779C242.514 114.321 241.377 112.024 239.799 110.041C239.7 109.919 239.606 109.788 239.507 109.671L239.178 109.324C238.957 109.098 238.727 108.873 238.52 108.643L237.808 108.011C237.574 107.799 237.308 107.628 237.056 107.434C236.042 106.673 234.914 106.077 233.714 105.67Z" fill="black"/>
<path d="M303.807 225.562H208.32V230.424H303.807V225.562Z" fill="#AC5BE8"/>
<path d="M242.588 292.061H268.886C270.207 292.061 271.473 292.586 272.406 293.521C273.34 294.455 273.864 295.723 273.864 297.045V299.512H237.61V297.045C237.61 295.723 238.135 294.455 239.068 293.521C240.002 292.586 241.268 292.061 242.588 292.061Z" fill="#2F2E41"/>
<path d="M248.845 225.458C248.845 225.458 242.317 176.427 274.071 127.987H278.522L287.423 128.285L271.404 225.16L248.845 225.458Z" fill="#2F2E41"/>
<path opacity="0.2" d="M248.845 225.458C248.845 225.458 242.317 176.427 274.071 127.987H278.522L287.423 128.285L271.404 225.16L248.845 225.458Z" fill="black"/>
<path d="M237.281 93.574C244.265 93.574 249.926 84.574 249.926 73.4719C249.926 62.3697 244.265 53.3697 237.281 53.3697C230.298 53.3697 224.636 62.3697 224.636 73.4719C224.636 84.574 230.298 93.574 237.281 93.574Z" fill="#F9B499"/>
<path d="M243.705 76.6741L254.354 86.6688C260.372 89.7944 264.125 77.5762 264.125 77.5762C270.111 58.2543 259.021 50.4832 259.021 50.4832C250.813 40.2675 243.493 44.0425 243.493 44.0425C239.718 45.594 232.844 47.3711 232.844 47.3711C226.853 48.4851 224.411 53.8162 224.411 53.8162C220.42 63.8109 232.844 67.347 232.844 67.347C232.844 67.347 230.402 80.6702 237.06 75.7856L240.718 75.6729L243.705 76.6741Z" fill="#2F2E41"/>
<path d="M244.098 76.3321C244.54 73.9822 243.387 71.7917 241.522 71.4395C239.656 71.0873 237.785 72.7067 237.343 75.0566C236.9 77.4065 238.053 79.5969 239.919 79.9492C241.784 80.3014 243.655 78.682 244.098 76.3321Z" fill="#F9B499"/>
<path d="M126.898 94.5449C128.015 94.5449 128.92 93.6382 128.92 92.5198C128.92 91.4014 128.015 90.4947 126.898 90.4947C125.781 90.4947 124.875 91.4014 124.875 92.5198C124.875 93.6382 125.781 94.5449 126.898 94.5449Z" fill="white"/>
<path d="M137.695 94.5449C138.813 94.5449 139.718 93.6382 139.718 92.5198C139.718 91.4014 138.813 90.4947 137.695 90.4947C136.578 90.4947 135.673 91.4014 135.673 92.5198C135.673 93.6382 136.578 94.5449 137.695 94.5449Z" fill="white"/>
<path d="M148.043 94.5449C149.16 94.5449 150.066 93.6382 150.066 92.5198C150.066 91.4014 149.16 90.4947 148.043 90.4947C146.926 90.4947 146.02 91.4014 146.02 92.5198C146.02 93.6382 146.926 94.5449 148.043 94.5449Z" fill="white"/>
<path d="M158.841 94.5449C159.958 94.5449 160.863 93.6382 160.863 92.5198C160.863 91.4014 159.958 90.4947 158.841 90.4947C157.724 90.4947 156.818 91.4014 156.818 92.5198C156.818 93.6382 157.724 94.5449 158.841 94.5449Z" fill="white"/>
<path d="M168.963 94.5449C170.08 94.5449 170.985 93.6382 170.985 92.5198C170.985 91.4014 170.08 90.4947 168.963 90.4947C167.846 90.4947 166.94 91.4014 166.94 92.5198C166.94 93.6382 167.846 94.5449 168.963 94.5449Z" fill="white"/>
<path d="M331.358 127.694C300.487 186.53 303.802 225.566 303.802 225.566L252.408 225.463C247.66 165.436 278.535 127.992 278.535 127.992L331.358 127.694Z" fill="#2F2E41"/>
<path d="M204.964 158.337L212.172 145.893L230.483 159.32L221.632 171.434L188.252 171.714L167.035 145.415C167.035 145.415 166.17 138.198 168.332 138.478C168.332 138.478 170.931 137.896 169.922 143.823C169.922 143.823 175.116 144.833 176.274 150.326C176.274 150.326 182.77 148.594 187.085 150.904L204.964 158.337Z" fill="#F9B499"/>
<path d="M204.942 158.337L209.077 161.291" stroke="#F7A48B" stroke-miterlimit="10"/>
<path d="M210.821 147.972L226.083 165.219L230.452 159.32L212.14 145.893L210.821 147.972Z" fill="#F7A48B"/>
<path d="M135.268 213.565H117.659V213.979H135.268V213.565Z" fill="#2F2E41"/>
<path opacity="0.08" d="M85.2833 119.612L187.63 55.8774L217.1 55.6519V77.4995L116.551 139.209H85.0581L85.2833 119.612Z" fill="#AC5BE8"/>
<path d="M335.065 266.718C335.26 261.704 335.19 256.683 334.858 251.676C334.12 241.35 332.546 231.1 330.15 221.029C328.84 215.355 327.222 209.78 325.538 204.197C325.488 204.03 325.218 204.075 325.267 204.251C330.47 223.888 334.727 244.149 334.452 264.557C334.371 270.272 333.709 275.878 333.169 281.552C333.169 281.705 333.398 281.764 333.439 281.615C334.511 276.771 334.858 271.684 335.065 266.718Z" fill="#AC5BE8"/>
<path d="M325.267 204.269C325.267 204.269 317.375 224.317 319.141 229.03C320.907 233.743 324.547 234.749 324.547 234.749C324.547 234.749 319.722 241.65 323.096 248.122C326.47 254.594 333.939 254.283 334.484 261.626C334.461 261.626 334.88 230.924 325.267 204.269Z" fill="#AC5BE8"/>
<path d="M333.605 248.965C333.614 248.931 333.614 248.896 333.605 248.862C332.568 235.172 329.999 221.643 325.947 208.527C325.947 208.491 325.871 208.5 325.884 208.527C327.443 214.39 328.839 220.289 330.024 226.216C328.966 225.211 327.673 224.488 326.263 224.114C326.236 224.114 326.218 224.146 326.263 224.155C327.746 224.701 329.079 225.593 330.15 226.757C330.38 227.921 330.601 229.08 330.822 230.243C329.056 228.272 326.614 227.294 324.164 226.36C324.132 226.36 324.114 226.405 324.164 226.414C326.713 227.452 329.249 228.791 330.975 230.992C331.575 234.321 332.104 237.658 332.56 241.005C331.287 239.667 329.653 238.727 327.857 238.299C327.803 238.299 327.772 238.371 327.826 238.384C329.678 238.92 331.335 239.982 332.596 241.442H332.628C332.786 242.62 332.934 243.806 333.078 244.983C332.091 244.148 330.978 243.476 329.781 242.989C329.749 242.989 329.731 243.03 329.781 243.043C331.002 243.566 332.12 244.303 333.083 245.217H333.128C333.259 246.336 333.394 247.473 333.506 248.591C331.73 246.439 329.422 244.789 326.812 243.806C326.804 243.799 326.793 243.795 326.782 243.796C326.771 243.797 326.761 243.802 326.754 243.81C326.747 243.819 326.743 243.829 326.744 243.84C326.745 243.851 326.75 243.862 326.758 243.869C329.334 245.01 331.595 246.759 333.349 248.965C333.369 248.99 333.396 249.009 333.426 249.018C333.457 249.028 333.489 249.028 333.52 249.02C333.687 250.738 333.844 252.47 333.97 254.202H334.011C333.871 252.497 333.732 250.724 333.605 248.965Z" fill="#2F2E41"/>
<path d="M327.267 222.12C325.841 221.236 324.213 220.728 322.537 220.646C322.497 220.646 322.492 220.7 322.537 220.704C324.16 221.006 325.735 221.522 327.222 222.238C327.276 222.269 327.326 222.166 327.267 222.12Z" fill="#2F2E41"/>
<path d="M328.222 243.355C327.125 242.723 325.917 242.309 324.664 242.132C324.619 242.132 324.619 242.191 324.664 242.205C325.889 242.444 327.074 242.859 328.182 243.436C328.227 243.463 328.267 243.382 328.222 243.355Z" fill="#2F2E41"/>
<path d="M355.805 229.355C352.469 231.666 349.404 234.347 346.669 237.347C343.857 240.521 341.683 244.209 340.268 248.208C337.269 256.56 335.658 265.348 335.498 274.223C335.394 279.147 335.866 284.066 336.903 288.881C336.91 288.898 336.92 288.914 336.933 288.927C336.946 288.941 336.962 288.951 336.979 288.958C336.996 288.966 337.015 288.969 337.034 288.969C337.052 288.969 337.071 288.965 337.088 288.958C337.114 288.947 337.136 288.929 337.151 288.906C337.167 288.883 337.174 288.855 337.173 288.827C335.889 280.35 335.939 271.724 337.322 263.263C338.673 254.969 340.804 245.948 346.07 239.205C348.94 235.534 352.512 232.643 356.048 229.662C356.089 229.629 356.115 229.582 356.121 229.531C356.127 229.479 356.112 229.427 356.08 229.386C356.047 229.346 356 229.32 355.949 229.314C355.897 229.308 355.845 229.323 355.805 229.355Z" fill="#AC5BE8"/>
<path d="M336.66 268.247C338.556 265.169 340.788 262.312 343.313 259.727C347.264 255.776 350.588 252.962 351.097 250.359C351.606 247.757 347.142 245.808 347.142 245.808C347.142 245.808 352.606 246.791 354.102 244.496C355.597 242.2 356.323 228.922 356.323 228.922C356.323 228.922 346.381 236.035 341.754 245.98C337.128 255.925 336.66 268.247 336.66 268.247Z" fill="#AC5BE8"/>
<path d="M352.881 232.336C348.701 236.445 344.489 240.829 342.034 246.232C341.203 248.099 340.478 250.011 339.863 251.96C339.737 252.353 339.61 252.74 339.489 253.137C339.484 253.16 339.484 253.183 339.489 253.205C338.32 257.242 337.377 261.34 336.664 265.482C336.664 265.509 336.705 265.523 336.709 265.482C337.137 263.407 337.61 261.31 338.133 259.226H338.196C339.025 258.869 339.905 258.644 340.804 258.559C340.863 258.559 340.858 258.45 340.804 258.455C339.926 258.495 339.058 258.654 338.223 258.929C338.705 257.043 339.232 255.162 339.818 253.313C341.738 252.855 343.701 252.601 345.674 252.556V252.529C343.726 252.437 341.775 252.604 339.872 253.025C339.975 252.709 340.074 252.393 340.187 252.073C341.477 251.766 342.787 251.545 344.106 251.41M344.106 251.369C342.815 251.388 341.529 251.539 340.268 251.82C340.809 250.219 341.394 248.641 342.038 247.103C342.578 245.844 343.206 244.624 343.917 243.454C344.965 243.202 346.029 243.02 347.102 242.908V242.854C346.101 242.777 345.095 242.876 344.129 243.147C344.669 242.308 345.214 241.478 345.786 240.68C348.016 240.184 350.291 239.724 352.543 240.134C352.55 240.132 352.556 240.127 352.56 240.121C352.565 240.115 352.567 240.108 352.567 240.101C352.567 240.093 352.565 240.086 352.56 240.08C352.556 240.074 352.55 240.069 352.543 240.067C350.372 239.494 348.205 239.828 346.034 240.256C346.268 239.94 346.512 239.629 346.755 239.323C348.103 238.903 349.505 238.681 350.917 238.664C350.923 238.664 350.929 238.662 350.933 238.657C350.937 238.653 350.94 238.647 350.94 238.641C350.94 238.635 350.937 238.63 350.933 238.626C350.929 238.621 350.923 238.619 350.917 238.619C349.611 238.5 348.295 238.616 347.03 238.962C348.877 236.67 350.908 234.519 352.922 232.39C353.034 232.291 352.967 232.228 352.868 232.327L344.106 251.369Z" fill="#2F2E41"/>
<path d="M352.768 241.397C352.114 241.303 351.451 241.28 350.791 241.33C350.71 241.33 350.719 241.469 350.791 241.469C351.449 241.469 352.102 241.442 352.755 241.469C352.76 241.47 352.765 241.47 352.769 241.469C352.774 241.468 352.778 241.466 352.782 241.464C352.786 241.461 352.79 241.457 352.792 241.453C352.795 241.449 352.797 241.445 352.798 241.44C352.799 241.435 352.799 241.431 352.798 241.426C352.797 241.421 352.795 241.417 352.792 241.413C352.789 241.409 352.786 241.405 352.782 241.403C352.778 241.4 352.773 241.398 352.768 241.397Z" fill="#2F2E41"/>
<path d="M345.615 254.297C344.567 254.319 343.532 254.526 342.556 254.91V254.951C343.57 254.707 344.593 254.612 345.615 254.441C345.625 254.438 345.634 254.434 345.642 254.428C345.65 254.421 345.656 254.413 345.661 254.404C345.666 254.396 345.668 254.386 345.669 254.376C345.67 254.366 345.668 254.356 345.665 254.346C345.662 254.334 345.656 254.323 345.647 254.314C345.638 254.306 345.627 254.299 345.615 254.297Z" fill="#2F2E41"/>
<path d="M343.493 249.836C343.058 249.831 342.623 249.872 342.196 249.958C342.155 249.958 342.155 250.034 342.196 250.034C342.632 250.056 343.07 250.035 343.502 249.971C343.52 249.965 343.535 249.952 343.543 249.935C343.552 249.918 343.553 249.899 343.547 249.881C343.543 249.87 343.535 249.86 343.526 249.852C343.516 249.844 343.505 249.839 343.493 249.836Z" fill="#2F2E41"/>
<path d="M307.532 243.463C310.758 244.559 313.85 246.016 316.749 247.806C319.763 249.724 322.377 252.21 324.443 255.126C328.797 261.189 332.128 267.925 334.304 275.066C335.524 279.024 336.28 283.111 336.556 287.244C336.553 287.26 336.547 287.274 336.538 287.288C336.529 287.301 336.517 287.312 336.504 287.321C336.49 287.33 336.475 287.336 336.46 287.339C336.444 287.342 336.428 287.342 336.412 287.339C336.389 287.334 336.369 287.322 336.353 287.305C336.337 287.288 336.326 287.267 336.322 287.244C335.403 280.095 333.372 273.134 330.304 266.614C327.29 260.214 323.483 253.399 317.69 249.164C314.537 246.859 310.96 245.366 307.411 243.752C307.221 243.661 307.348 243.395 307.532 243.463Z" fill="#AC5BE8"/>
<path d="M331.997 270.515C329.751 268.463 327.284 266.668 324.641 265.162C320.537 262.875 317.195 261.36 316.177 259.38C315.159 257.4 318.348 254.788 318.348 254.788C318.348 254.788 314.154 256.849 312.415 255.334C310.677 253.818 307.01 243.228 307.01 243.228C307.01 243.228 316.69 246.679 322.736 253.665C328.781 260.651 331.997 270.515 331.997 270.515Z" fill="#AC5BE8"/>
<path d="M331.502 268.332C326.659 259.231 320.2 251 311.343 245.565C313.653 247.054 315.822 248.752 317.821 250.639C316.025 250.541 314.234 250.915 312.627 251.726C312.591 251.726 312.627 251.793 312.627 251.78C314.339 251.139 316.157 250.833 317.983 250.878C317.993 250.882 318.004 250.885 318.015 250.885C318.026 250.885 318.036 250.882 318.046 250.878C318.362 251.175 318.668 251.482 318.979 251.78C318.042 251.824 317.111 251.948 316.195 252.15C316.168 252.15 316.195 252.195 316.195 252.19C317.164 252.006 318.15 251.923 319.136 251.942C320.752 253.587 322.276 255.32 323.7 257.133C323.048 257.046 322.385 257.095 321.754 257.278C321.749 257.278 321.744 257.279 321.74 257.281C321.735 257.282 321.732 257.285 321.728 257.288C321.725 257.292 321.722 257.296 321.72 257.3C321.719 257.304 321.718 257.309 321.718 257.314C321.718 257.324 321.721 257.334 321.728 257.341C321.735 257.349 321.744 257.353 321.754 257.354C322.443 257.274 323.139 257.264 323.83 257.323C324.096 257.661 324.375 257.999 324.623 258.342C322.653 258.223 320.677 258.415 318.767 258.911M318.767 258.956C320.754 258.568 322.783 258.436 324.803 258.563C325.047 258.888 325.285 259.231 325.524 259.56C324.346 259.528 323.168 259.665 322.028 259.966C322.02 259.966 322.011 259.969 322.004 259.975C321.998 259.981 321.993 259.989 321.992 259.997C321.993 260.006 321.998 260.014 322.004 260.02C322.011 260.026 322.02 260.029 322.028 260.029C323.212 259.774 324.424 259.678 325.632 259.745C326.671 261.194 327.671 262.659 328.632 264.138C328.12 264.052 327.594 264.084 327.096 264.233M327.096 264.278C327.65 264.232 328.207 264.26 328.754 264.359C329.614 265.712 330.448 267.065 331.25 268.418C331.389 268.54 331.574 268.45 331.515 268.332L327.096 264.278Z" fill="#2F2E41"/>
<path d="M323.97 260.782C323.018 260.718 322.063 260.834 321.155 261.125V261.17C322.079 261.011 323.014 260.914 323.952 260.881C324.024 260.877 324.033 260.791 323.97 260.782Z" fill="#2F2E41"/>
<path d="M315.524 249.692C315.083 249.661 314.64 249.691 314.208 249.782C314.198 249.782 314.187 249.786 314.18 249.794C314.172 249.801 314.168 249.812 314.168 249.822C314.169 249.832 314.174 249.842 314.181 249.848C314.189 249.855 314.198 249.858 314.208 249.858C314.659 249.813 315.06 249.831 315.483 249.822C315.5 249.827 315.519 249.825 315.535 249.816C315.55 249.808 315.563 249.794 315.569 249.777C315.571 249.769 315.573 249.76 315.572 249.751C315.571 249.742 315.568 249.733 315.564 249.725C315.56 249.717 315.554 249.71 315.547 249.704C315.54 249.698 315.532 249.694 315.524 249.692Z" fill="#2F2E41"/>
<path d="M344.489 300.603H322.641L325.754 277.754L326.551 271.895H340.579L341.376 277.754L344.489 300.603Z" fill="#2F2E41"/>
<path opacity="0.2" d="M341.376 277.754H325.754L326.551 271.895H340.579L341.376 277.754Z" fill="black"/>
<path d="M342.579 269.857H324.542V274.818H342.579V269.857Z" fill="#2F2E41"/>
</svg>